<?xml version="1.0" encoding="utf-8"?>
<!-- Generator: Adobe Illustrator 16.0.0, SVG Export Plug-In . SVG Version: 6.00 Build 0)  -->
<!DOCTYPE svg PUBLIC "-//W3C//DTD SVG 1.1//EN" "http://www.w3.org/Graphics/SVG/1.1/DTD/svg11.dtd">
<svg version="1.1" id="Layer_1" xmlns="http://www.w3.org/2000/svg" xmlns:xlink="http://www.w3.org/1999/xlink" x="0px" y="0px"
	 width="1520px" height="80px" viewBox="0 0 1520 80" enable-background="new 0 0 1520 80" xml:space="preserve">
<g id="Layer_1_1_">
	<polygon fill="#34AD49" points="0.125,60.125 80.125,60.125 79.875,65.875 -0.125,65.875 	"/>
	<rect y="14.125" fill="#34AD49" width="80" height="5.75"/>
	<rect x="80" y="14.125" fill="#34AD49" width="80" height="5.75"/>
	<rect x="80" y="60.125" fill="#34AD49" width="80" height="5.75"/>
	<rect x="80.917" y="42" fill="#34AD49" width="79.083" height="6"/>
	<rect x="80.917" y="32" fill="#34AD49" width="79.083" height="6"/>
	<rect x="160" y="14.125" fill="#34AD49" width="80" height="5.75"/>
	<rect x="160" y="60.125" fill="#34AD49" width="80" height="5.75"/>
	<rect x="160" y="44" fill="#34AD49" width="80" height="6"/>
	<rect x="160" y="30" fill="#34AD49" width="80" height="6"/>
	<rect x="240" y="14.125" fill="#34AD49" width="80" height="5.75"/>
	<rect x="240" y="60.125" fill="#34AD49" width="80" height="5.75"/>
	<rect x="240" y="46" fill="#34AD49" width="80" height="6"/>
	<rect x="240" y="28" fill="#34AD49" width="80" height="6"/>
	<rect x="320" y="14.125" fill="#34AD49" width="80" height="5.75"/>
	<rect x="320" y="60.125" fill="#34AD49" width="80" height="5.75"/>
	<rect x="320" y="48" fill="#34AD49" width="80" height="6"/>
	<rect x="320" y="26" fill="#34AD49" width="80" height="6"/>
	<rect x="400" y="14.125" fill="#34AD49" width="80" height="5.75"/>
	<rect x="400" y="60.125" fill="#34AD49" width="80" height="5.75"/>
	<rect x="400" y="50" fill="#34AD49" width="80" height="6"/>
	<rect x="400" y="24" fill="#34AD49" width="80" height="6"/>
	<rect x="480" y="14.125" fill="#34AD49" width="80" height="5.75"/>
	<rect x="480" y="60.125" fill="#34AD49" width="80" height="5.75"/>
	<rect x="480" y="52" fill="#34AD49" width="80" height="6"/>
	<rect x="480" y="22" fill="#34AD49" width="80" height="6"/>
	<rect x="560" y="14.125" fill="#34AD49" width="80" height="5.75"/>
	<rect x="560" y="60.125" fill="#34AD49" width="80" height="5.75"/>
	<rect x="560" y="54" fill="#34AD49" width="80" height="6"/>
	<rect x="560" y="20" fill="#34AD49" width="80" height="6"/>
	<rect x="640" y="14.125" fill="#34AD49" width="80" height="5.75"/>
	<rect x="640" y="60.125" fill="#34AD49" width="80" height="5.75"/>
	<rect x="640" y="56" fill="#34AD49" width="80" height="6"/>
	<rect x="640" y="18" fill="#34AD49" width="80" height="6"/>
	<rect x="720" y="11.75" fill="#34AD49" width="80" height="6.499"/>
	<rect x="720" y="62" fill="#34AD49" width="80" height="6"/>
	<rect x="-0.125" y="37" fill="#34AD49" width="80" height="6"/>
	<polygon fill="#34AD49" points="877.342,74.864 798.558,66.373 800.643,59.15 879.426,67.642 	"/>
	<polygon fill="#34AD49" points="879.435,12.365 800.655,20.849 798.572,13.629 877.352,5.145 	"/>
	<polygon fill="#34AD49" points="955.529,74.54 880.354,54.97 884.457,46.904 959.633,66.475 	"/>
	<polygon fill="#34AD49" points="959.64,14.174 884.463,31.62 880.358,24.43 955.535,6.983 	"/>
	<polygon fill="#34AD49" points="1033.109,71.732 959.324,42.244 965.712,34.583 1039.5,64.071 	"/>
	<polygon fill="#34AD49" points="1501.343,79.721 1457.516,8.865 1462.713,0.464 1506.54,71.319 	"/>
	<polygon fill="#34AD49" points="1507.742,8.64 1459.189,79.982 1453.415,71.498 1501.968,0.156 	"/>
	<polygon fill="#34AD49" points="959.488,39.082 1033.125,6.141 1039.5,14.699 965.864,47.641 	"/>
	<polygon fill="#34AD49" points="1043.354,33.205 1120.342,65.119 1116.814,72.137 1039.827,40.222 	"/>
	<polygon fill="#34AD49" points="1039.966,37.296 1116.743,7.945 1120.493,14.678 1043.717,44.028 	"/>
</g>
<g id="Layer_2">
	<g id="Layer_3">
	</g>
	<polygon fill="#34AD49" points="1422.207,80.109 1372.265,8.554 1378.187,0.069 1428.129,71.625 	"/>
	<polygon fill="#34AD49" points="1428.662,8.644 1377.874,79.987 1371.834,71.503 1422.621,0.159 	"/>
	<polygon fill="#34AD49" points="1292.465,14.167 1353.63,65.564 1347.627,72.736 1286.461,21.338 	"/>
	<polygon fill="#34AD49" points="1284.848,61.797 1349.9,6.26 1356.277,14.003 1291.223,69.539 	"/>
	<polygon fill="#34AD49" points="1206.752,25.794 1280.025,61.398 1274.237,67.172 1200.962,31.569 	"/>
	<polygon fill="#34AD49" points="1200.962,46.917 1273.968,12.092 1279.867,17.844 1206.859,52.67 	"/>
	<polygon fill="#34AD49" points="1125.332,26.085 1200.75,64.413 1196.104,71.629 1120.686,33.301 	"/>
	<polygon fill="#34AD49" points="1120.913,44.181 1195.775,7.866 1200.555,14.885 1125.691,51.2 	"/>
</g>
</svg>
