<?xml version="1.0" encoding="utf-8"?>
<!-- Generator: Adobe Illustrator 16.0.0, SVG Export Plug-In . SVG Version: 6.00 Build 0)  -->
<!DOCTYPE svg PUBLIC "-//W3C//DTD SVG 1.1//EN" "http://www.w3.org/Graphics/SVG/1.1/DTD/svg11.dtd">
<svg version="1.1" id="Layer_1" xmlns="http://www.w3.org/2000/svg" xmlns:xlink="http://www.w3.org/1999/xlink" x="0px" y="0px"
	 width="1520px" height="80px" viewBox="0 0 1520 80" enable-background="new 0 0 1520 80" xml:space="preserve">
<g id="Layer_1_1_">
	<linearGradient id="SVGID_1_" gradientUnits="userSpaceOnUse" x1="-0.125" y1="63" x2="80.125" y2="63">
		<stop  offset="0" style="stop-color:#FFFFFF"/>
		<stop  offset="0.995" style="stop-color:#FFFFFF"/>
	</linearGradient>
	<polygon fill="url(#SVGID_1_)" points="0.125,60.125 80.125,60.125 79.875,65.875 -0.125,65.875 	"/>
	<linearGradient id="SVGID_2_" gradientUnits="userSpaceOnUse" x1="0" y1="17" x2="80" y2="17">
		<stop  offset="0" style="stop-color:#FFFFFF"/>
		<stop  offset="0.995" style="stop-color:#FFFFFF"/>
	</linearGradient>
	<rect y="14.125" fill="url(#SVGID_2_)" width="80" height="5.75"/>
	<linearGradient id="SVGID_3_" gradientUnits="userSpaceOnUse" x1="80" y1="17" x2="160" y2="17">
		<stop  offset="0" style="stop-color:#FFFFFF"/>
		<stop  offset="0.995" style="stop-color:#FFFFFF"/>
	</linearGradient>
	<rect x="80" y="14.125" fill="url(#SVGID_3_)" width="80" height="5.75"/>
	<linearGradient id="SVGID_4_" gradientUnits="userSpaceOnUse" x1="80" y1="63" x2="160" y2="63">
		<stop  offset="0" style="stop-color:#FFFFFF"/>
		<stop  offset="0.995" style="stop-color:#FFFFFF"/>
	</linearGradient>
	<rect x="80" y="60.125" fill="url(#SVGID_4_)" width="80" height="5.75"/>
	<linearGradient id="SVGID_5_" gradientUnits="userSpaceOnUse" x1="80" y1="45" x2="160" y2="45">
		<stop  offset="0" style="stop-color:#FFFFFF"/>
		<stop  offset="0.995" style="stop-color:#FFFFFF"/>
	</linearGradient>
	<rect x="80" y="42" fill="url(#SVGID_5_)" width="80" height="6"/>
	<linearGradient id="SVGID_6_" gradientUnits="userSpaceOnUse" x1="80" y1="35" x2="160" y2="35">
		<stop  offset="0" style="stop-color:#FFFFFF"/>
		<stop  offset="0.995" style="stop-color:#FFFFFF"/>
	</linearGradient>
	<rect x="80" y="32" fill="url(#SVGID_6_)" width="80" height="6"/>
	<linearGradient id="SVGID_7_" gradientUnits="userSpaceOnUse" x1="160" y1="17" x2="240" y2="17">
		<stop  offset="0" style="stop-color:#FFFFFF"/>
		<stop  offset="0.995" style="stop-color:#FFFFFF"/>
	</linearGradient>
	<rect x="160" y="14.125" fill="url(#SVGID_7_)" width="80" height="5.75"/>
	<linearGradient id="SVGID_8_" gradientUnits="userSpaceOnUse" x1="160" y1="63" x2="240" y2="63">
		<stop  offset="0" style="stop-color:#FFFFFF"/>
		<stop  offset="0.995" style="stop-color:#FFFFFF"/>
	</linearGradient>
	<rect x="160" y="60.125" fill="url(#SVGID_8_)" width="80" height="5.75"/>
	<linearGradient id="SVGID_9_" gradientUnits="userSpaceOnUse" x1="160" y1="47" x2="240" y2="47">
		<stop  offset="0" style="stop-color:#FFFFFF"/>
		<stop  offset="0.995" style="stop-color:#FFFFFF"/>
	</linearGradient>
	<rect x="160" y="44" fill="url(#SVGID_9_)" width="80" height="6"/>
	<linearGradient id="SVGID_10_" gradientUnits="userSpaceOnUse" x1="160" y1="33" x2="240" y2="33">
		<stop  offset="0" style="stop-color:#FFFFFF"/>
		<stop  offset="0.995" style="stop-color:#FFFFFF"/>
	</linearGradient>
	<rect x="160" y="30" fill="url(#SVGID_10_)" width="80" height="6"/>
	<linearGradient id="SVGID_11_" gradientUnits="userSpaceOnUse" x1="240" y1="17" x2="320" y2="17">
		<stop  offset="0" style="stop-color:#FFFFFF"/>
		<stop  offset="0.995" style="stop-color:#FFFFFF"/>
	</linearGradient>
	<rect x="240" y="14.125" fill="url(#SVGID_11_)" width="80" height="5.75"/>
	<linearGradient id="SVGID_12_" gradientUnits="userSpaceOnUse" x1="240" y1="63" x2="320" y2="63">
		<stop  offset="0" style="stop-color:#FFFFFF"/>
		<stop  offset="0.995" style="stop-color:#FFFFFF"/>
	</linearGradient>
	<rect x="240" y="60.125" fill="url(#SVGID_12_)" width="80" height="5.75"/>
	<linearGradient id="SVGID_13_" gradientUnits="userSpaceOnUse" x1="240" y1="49" x2="320" y2="49">
		<stop  offset="0" style="stop-color:#FFFFFF"/>
		<stop  offset="0.995" style="stop-color:#FFFFFF"/>
	</linearGradient>
	<rect x="240" y="46" fill="url(#SVGID_13_)" width="80" height="6"/>
	<linearGradient id="SVGID_14_" gradientUnits="userSpaceOnUse" x1="240" y1="31" x2="320" y2="31">
		<stop  offset="0" style="stop-color:#FFFFFF"/>
		<stop  offset="0.995" style="stop-color:#FFFFFF"/>
	</linearGradient>
	<rect x="240" y="28" fill="url(#SVGID_14_)" width="80" height="6"/>
	<linearGradient id="SVGID_15_" gradientUnits="userSpaceOnUse" x1="320" y1="17" x2="400" y2="17">
		<stop  offset="0" style="stop-color:#FFFFFF"/>
		<stop  offset="0.995" style="stop-color:#FFFFFF"/>
	</linearGradient>
	<rect x="320" y="14.125" fill="url(#SVGID_15_)" width="80" height="5.75"/>
	<linearGradient id="SVGID_16_" gradientUnits="userSpaceOnUse" x1="320" y1="63" x2="400" y2="63">
		<stop  offset="0" style="stop-color:#FFFFFF"/>
		<stop  offset="0.995" style="stop-color:#FFFFFF"/>
	</linearGradient>
	<rect x="320" y="60.125" fill="url(#SVGID_16_)" width="80" height="5.75"/>
	<linearGradient id="SVGID_17_" gradientUnits="userSpaceOnUse" x1="320" y1="51" x2="400" y2="51">
		<stop  offset="0" style="stop-color:#FFFFFF"/>
		<stop  offset="0.995" style="stop-color:#FFFFFF"/>
	</linearGradient>
	<rect x="320" y="48" fill="url(#SVGID_17_)" width="80" height="6"/>
	<linearGradient id="SVGID_18_" gradientUnits="userSpaceOnUse" x1="320" y1="29" x2="400" y2="29">
		<stop  offset="0" style="stop-color:#FFFFFF"/>
		<stop  offset="0.995" style="stop-color:#FFFFFF"/>
	</linearGradient>
	<rect x="320" y="26" fill="url(#SVGID_18_)" width="80" height="6"/>
	<linearGradient id="SVGID_19_" gradientUnits="userSpaceOnUse" x1="400" y1="17" x2="480" y2="17">
		<stop  offset="0" style="stop-color:#FFFFFF"/>
		<stop  offset="0.995" style="stop-color:#FFFFFF"/>
	</linearGradient>
	<rect x="400" y="14.125" fill="url(#SVGID_19_)" width="80" height="5.75"/>
	<linearGradient id="SVGID_20_" gradientUnits="userSpaceOnUse" x1="400" y1="63" x2="480" y2="63">
		<stop  offset="0" style="stop-color:#FFFFFF"/>
		<stop  offset="0.995" style="stop-color:#FFFFFF"/>
	</linearGradient>
	<rect x="400" y="60.125" fill="url(#SVGID_20_)" width="80" height="5.75"/>
	<linearGradient id="SVGID_21_" gradientUnits="userSpaceOnUse" x1="400" y1="53" x2="480" y2="53">
		<stop  offset="0" style="stop-color:#FFFFFF"/>
		<stop  offset="0.995" style="stop-color:#FFFFFF"/>
	</linearGradient>
	<rect x="400" y="50" fill="url(#SVGID_21_)" width="80" height="6"/>
	<linearGradient id="SVGID_22_" gradientUnits="userSpaceOnUse" x1="400" y1="27" x2="480" y2="27">
		<stop  offset="0" style="stop-color:#FFFFFF"/>
		<stop  offset="0.995" style="stop-color:#FFFFFF"/>
	</linearGradient>
	<rect x="400" y="24" fill="url(#SVGID_22_)" width="80" height="6"/>
	<linearGradient id="SVGID_23_" gradientUnits="userSpaceOnUse" x1="480" y1="17" x2="560" y2="17">
		<stop  offset="0" style="stop-color:#FFFFFF"/>
		<stop  offset="0.995" style="stop-color:#FFFFFF"/>
	</linearGradient>
	<rect x="480" y="14.125" fill="url(#SVGID_23_)" width="80" height="5.75"/>
	<linearGradient id="SVGID_24_" gradientUnits="userSpaceOnUse" x1="480" y1="63" x2="560" y2="63">
		<stop  offset="0" style="stop-color:#FFFFFF"/>
		<stop  offset="0.995" style="stop-color:#FFFFFF"/>
	</linearGradient>
	<rect x="480" y="60.125" fill="url(#SVGID_24_)" width="80" height="5.75"/>
	<linearGradient id="SVGID_25_" gradientUnits="userSpaceOnUse" x1="480" y1="55" x2="560" y2="55">
		<stop  offset="0" style="stop-color:#FFFFFF"/>
		<stop  offset="0.995" style="stop-color:#FFFFFF"/>
	</linearGradient>
	<rect x="480" y="52" fill="url(#SVGID_25_)" width="80" height="6"/>
	<linearGradient id="SVGID_26_" gradientUnits="userSpaceOnUse" x1="480" y1="25" x2="560" y2="25">
		<stop  offset="0" style="stop-color:#FFFFFF"/>
		<stop  offset="0.995" style="stop-color:#FFFFFF"/>
	</linearGradient>
	<rect x="480" y="22" fill="url(#SVGID_26_)" width="80" height="6"/>
	<linearGradient id="SVGID_27_" gradientUnits="userSpaceOnUse" x1="560" y1="17" x2="640" y2="17">
		<stop  offset="0" style="stop-color:#FFFFFF"/>
		<stop  offset="0.995" style="stop-color:#FFFFFF"/>
	</linearGradient>
	<rect x="560" y="14.125" fill="url(#SVGID_27_)" width="80" height="5.75"/>
	<linearGradient id="SVGID_28_" gradientUnits="userSpaceOnUse" x1="560" y1="63" x2="640" y2="63">
		<stop  offset="0" style="stop-color:#FFFFFF"/>
		<stop  offset="0.995" style="stop-color:#FFFFFF"/>
	</linearGradient>
	<rect x="560" y="60.125" fill="url(#SVGID_28_)" width="80" height="5.75"/>
	<linearGradient id="SVGID_29_" gradientUnits="userSpaceOnUse" x1="560" y1="57" x2="640" y2="57">
		<stop  offset="0" style="stop-color:#FFFFFF"/>
		<stop  offset="0.995" style="stop-color:#FFFFFF"/>
	</linearGradient>
	<rect x="560" y="54" fill="url(#SVGID_29_)" width="80" height="6"/>
	<linearGradient id="SVGID_30_" gradientUnits="userSpaceOnUse" x1="560" y1="23" x2="640" y2="23">
		<stop  offset="0" style="stop-color:#FFFFFF"/>
		<stop  offset="0.995" style="stop-color:#FFFFFF"/>
	</linearGradient>
	<rect x="560" y="20" fill="url(#SVGID_30_)" width="80" height="6"/>
	<linearGradient id="SVGID_31_" gradientUnits="userSpaceOnUse" x1="640" y1="17" x2="720" y2="17">
		<stop  offset="0" style="stop-color:#FFFFFF"/>
		<stop  offset="0.995" style="stop-color:#FFFFFF"/>
	</linearGradient>
	<rect x="640" y="14.125" fill="url(#SVGID_31_)" width="80" height="5.75"/>
	<linearGradient id="SVGID_32_" gradientUnits="userSpaceOnUse" x1="640" y1="63" x2="720" y2="63">
		<stop  offset="0" style="stop-color:#FFFFFF"/>
		<stop  offset="0.995" style="stop-color:#FFFFFF"/>
	</linearGradient>
	<rect x="640" y="60.125" fill="url(#SVGID_32_)" width="80" height="5.75"/>
	<linearGradient id="SVGID_33_" gradientUnits="userSpaceOnUse" x1="640" y1="59" x2="720" y2="59">
		<stop  offset="0" style="stop-color:#FFFFFF"/>
		<stop  offset="0.995" style="stop-color:#FFFFFF"/>
	</linearGradient>
	<rect x="640" y="56" fill="url(#SVGID_33_)" width="80" height="6"/>
	<linearGradient id="SVGID_34_" gradientUnits="userSpaceOnUse" x1="640" y1="21" x2="720" y2="21">
		<stop  offset="0" style="stop-color:#FFFFFF"/>
		<stop  offset="0.995" style="stop-color:#FFFFFF"/>
	</linearGradient>
	<rect x="640" y="18" fill="url(#SVGID_34_)" width="80" height="6"/>
	<linearGradient id="SVGID_35_" gradientUnits="userSpaceOnUse" x1="720" y1="14.9995" x2="800" y2="14.9995">
		<stop  offset="0" style="stop-color:#FFFFFF"/>
		<stop  offset="0.995" style="stop-color:#FFFFFF"/>
	</linearGradient>
	<rect x="720" y="11.75" fill="url(#SVGID_35_)" width="80" height="6.499"/>
	<linearGradient id="SVGID_36_" gradientUnits="userSpaceOnUse" x1="720" y1="65" x2="800" y2="65">
		<stop  offset="0" style="stop-color:#FFFFFF"/>
		<stop  offset="0.995" style="stop-color:#FFFFFF"/>
	</linearGradient>
	<rect x="720" y="62" fill="url(#SVGID_36_)" width="80" height="6"/>
	<linearGradient id="SVGID_37_" gradientUnits="userSpaceOnUse" x1="-0.125" y1="40" x2="79.875" y2="40">
		<stop  offset="0" style="stop-color:#FFFFFF"/>
		<stop  offset="0.995" style="stop-color:#FFFFFF"/>
	</linearGradient>
	<rect x="-0.125" y="37" fill="url(#SVGID_37_)" width="80" height="6"/>
	<linearGradient id="SVGID_38_" gradientUnits="userSpaceOnUse" x1="798.5586" y1="67.0078" x2="879.4258" y2="67.0078">
		<stop  offset="0" style="stop-color:#FFFFFF"/>
		<stop  offset="0.995" style="stop-color:#FFFFFF"/>
	</linearGradient>
	<polygon fill="url(#SVGID_38_)" points="877.342,74.864 798.559,66.373 800.643,59.15 879.426,67.643 	"/>
	<linearGradient id="SVGID_39_" gradientUnits="userSpaceOnUse" x1="798.5723" y1="12.9971" x2="879.4355" y2="12.9971">
		<stop  offset="0" style="stop-color:#FFFFFF"/>
		<stop  offset="0.995" style="stop-color:#FFFFFF"/>
	</linearGradient>
	<polygon fill="url(#SVGID_39_)" points="879.436,12.365 800.655,20.849 798.572,13.629 877.352,5.145 	"/>
	<linearGradient id="SVGID_40_" gradientUnits="userSpaceOnUse" x1="880.3535" y1="60.7227" x2="959.6328" y2="60.7227">
		<stop  offset="0" style="stop-color:#FFFFFF"/>
		<stop  offset="0.995" style="stop-color:#FFFFFF"/>
	</linearGradient>
	<polygon fill="url(#SVGID_40_)" points="955.529,74.54 880.354,54.971 884.457,46.904 959.633,66.475 	"/>
	<linearGradient id="SVGID_41_" gradientUnits="userSpaceOnUse" x1="880.3574" y1="19.3018" x2="959.6406" y2="19.3018">
		<stop  offset="0" style="stop-color:#FFFFFF"/>
		<stop  offset="0.995" style="stop-color:#FFFFFF"/>
	</linearGradient>
	<polygon fill="url(#SVGID_41_)" points="959.641,14.174 884.463,31.62 880.357,24.43 955.535,6.983 	"/>
	<linearGradient id="SVGID_42_" gradientUnits="userSpaceOnUse" x1="959.3242" y1="53.1582" x2="1039.5" y2="53.1582">
		<stop  offset="0" style="stop-color:#FFFFFF"/>
		<stop  offset="0.995" style="stop-color:#FFFFFF"/>
	</linearGradient>
	<polygon fill="url(#SVGID_42_)" points="1033.109,71.732 959.324,42.244 965.712,34.583 1039.5,64.07 	"/>
	<linearGradient id="SVGID_43_" gradientUnits="userSpaceOnUse" x1="959.4883" y1="26.8906" x2="1039.5" y2="26.8906">
		<stop  offset="0" style="stop-color:#FFFFFF"/>
		<stop  offset="0.995" style="stop-color:#FFFFFF"/>
	</linearGradient>
	<polygon fill="url(#SVGID_43_)" points="959.488,39.082 1033.125,6.141 1039.5,14.699 965.864,47.641 	"/>
	<linearGradient id="SVGID_44_" gradientUnits="userSpaceOnUse" x1="1039.8271" y1="52.6709" x2="1120.3418" y2="52.6709">
		<stop  offset="0" style="stop-color:#FFFFFF"/>
		<stop  offset="0.995" style="stop-color:#FFFFFF"/>
	</linearGradient>
	<polygon fill="url(#SVGID_44_)" points="1043.354,33.205 1120.342,65.119 1116.814,72.137 1039.827,40.222 	"/>
	<linearGradient id="SVGID_45_" gradientUnits="userSpaceOnUse" x1="1039.9658" y1="25.9863" x2="1120.4932" y2="25.9863">
		<stop  offset="0" style="stop-color:#FFFFFF"/>
		<stop  offset="0.995" style="stop-color:#FFFFFF"/>
	</linearGradient>
	<polygon fill="url(#SVGID_45_)" points="1039.966,37.296 1116.743,7.945 1120.493,14.678 1043.717,44.027 	"/>
</g>
<g id="Layer_2">
	<g id="Layer_3">
	</g>
	<linearGradient id="SVGID_46_" gradientUnits="userSpaceOnUse" x1="1372.2656" y1="40.0889" x2="1428.1289" y2="40.0889">
		<stop  offset="0" style="stop-color:#FFFFFF"/>
		<stop  offset="0.995" style="stop-color:#FFFFFF"/>
	</linearGradient>
	<polygon fill="url(#SVGID_46_)" points="1422.207,80.109 1372.266,8.554 1378.188,0.069 1428.129,71.625 	"/>
	<linearGradient id="SVGID_47_" gradientUnits="userSpaceOnUse" x1="1371.834" y1="40.0728" x2="1428.6621" y2="40.0728">
		<stop  offset="0" style="stop-color:#FFFFFF"/>
		<stop  offset="0.995" style="stop-color:#FFFFFF"/>
	</linearGradient>
	<polygon fill="url(#SVGID_47_)" points="1428.662,8.644 1377.874,79.986 1371.834,71.503 1422.621,0.159 	"/>
	<linearGradient id="SVGID_48_" gradientUnits="userSpaceOnUse" x1="1286.4609" y1="43.4512" x2="1353.6299" y2="43.4512">
		<stop  offset="0" style="stop-color:#FFFFFF"/>
		<stop  offset="0.995" style="stop-color:#FFFFFF"/>
	</linearGradient>
	<polygon fill="url(#SVGID_48_)" points="1292.465,14.167 1353.63,65.564 1347.627,72.736 1286.461,21.338 	"/>
	<linearGradient id="SVGID_49_" gradientUnits="userSpaceOnUse" x1="1284.8477" y1="37.8994" x2="1356.2773" y2="37.8994">
		<stop  offset="0" style="stop-color:#FFFFFF"/>
		<stop  offset="0.995" style="stop-color:#FFFFFF"/>
	</linearGradient>
	<polygon fill="url(#SVGID_49_)" points="1284.848,61.797 1349.9,6.26 1356.277,14.003 1291.223,69.539 	"/>
	<linearGradient id="SVGID_50_" gradientUnits="userSpaceOnUse" x1="1200.9619" y1="46.4824" x2="1280.0254" y2="46.4824">
		<stop  offset="0" style="stop-color:#FFFFFF"/>
		<stop  offset="0.995" style="stop-color:#FFFFFF"/>
	</linearGradient>
	<polygon fill="url(#SVGID_50_)" points="1206.752,25.794 1280.025,61.398 1274.237,67.172 1200.962,31.569 	"/>
	<linearGradient id="SVGID_51_" gradientUnits="userSpaceOnUse" x1="1200.9619" y1="32.3809" x2="1279.8672" y2="32.3809">
		<stop  offset="0" style="stop-color:#FFFFFF"/>
		<stop  offset="0.995" style="stop-color:#FFFFFF"/>
	</linearGradient>
	<polygon fill="url(#SVGID_51_)" points="1200.962,46.917 1273.968,12.092 1279.867,17.844 1206.859,52.67 	"/>
	<linearGradient id="SVGID_52_" gradientUnits="userSpaceOnUse" x1="1120.6855" y1="48.8574" x2="1200.75" y2="48.8574">
		<stop  offset="0" style="stop-color:#FFFFFF"/>
		<stop  offset="0.995" style="stop-color:#FFFFFF"/>
	</linearGradient>
	<polygon fill="url(#SVGID_52_)" points="1125.332,26.085 1200.75,64.413 1196.104,71.629 1120.686,33.301 	"/>
	<linearGradient id="SVGID_53_" gradientUnits="userSpaceOnUse" x1="1120.9131" y1="29.5332" x2="1200.5547" y2="29.5332">
		<stop  offset="0" style="stop-color:#FFFFFF"/>
		<stop  offset="0.995" style="stop-color:#FFFFFF"/>
	</linearGradient>
	<polygon fill="url(#SVGID_53_)" points="1120.913,44.182 1195.775,7.866 1200.555,14.885 1125.691,51.2 	"/>
</g>
<linearGradient id="SVGID_54_" gradientUnits="userSpaceOnUse" x1="1446.6045" y1="40" x2="1517.2197" y2="40">
	<stop  offset="0" style="stop-color:#FFFFFF"/>
	<stop  offset="0.995" style="stop-color:#FFFFFF"/>
</linearGradient>
<polygon fill="url(#SVGID_54_)" points="1446.604,70.559 1512.677,4.486 1517.22,9.441 1451.147,75.514 "/>
<linearGradient id="SVGID_55_" gradientUnits="userSpaceOnUse" x1="1446.3994" y1="40.0903" x2="1517.4268" y2="40.0903">
	<stop  offset="0" style="stop-color:#FFFFFF"/>
	<stop  offset="0.995" style="stop-color:#FFFFFF"/>
</linearGradient>
<polygon fill="url(#SVGID_55_)" points="1512.474,75.398 1446.399,9.325 1451.354,4.782 1517.427,70.854 "/>
<linearGradient id="SVGID_56_" gradientUnits="userSpaceOnUse" x1="1478.0664" y1="30.3252" x2="1478.0664" y2="30.3252">
	<stop  offset="0" style="stop-color:#FFFFFF"/>
	<stop  offset="0.995" style="stop-color:#FFFFFF"/>
</linearGradient>
<path fill="url(#SVGID_56_)" d="M1478.066,30.325"/>
</svg>
